<!DOCTYPE svg PUBLIC "-//W3C//DTD SVG 1.1//EN" "http://www.w3.org/Graphics/SVG/1.1/DTD/svg11.dtd">
<!-- Uploaded to: SVG Repo, www.svgrepo.com, Transformed by: SVG Repo Mixer Tools -->
<svg height="800px" width="800px" version="1.1" id="_x32_" xmlns="http://www.w3.org/2000/svg" xmlns:xlink="http://www.w3.org/1999/xlink" viewBox="0 0 512 512" xml:space="preserve" fill="#0a2463">
<g id="SVGRepo_bgCarrier" stroke-width="0"/>
<g id="SVGRepo_tracerCarrier" stroke-linecap="round" stroke-linejoin="round"/>
<g id="SVGRepo_iconCarrier"> <style type="text/css"> .st0{fill:#0a2463;} </style> <g> <path class="st0" d="M459.843,172.064l5.941-31.156c0.553-2.915-0.961-5.837-3.668-7.062l-15.87-7.215 c-1.137-0.512-2.338-0.865-3.572-1.033l-50.614-6.983c-3.828-0.528-7.687,0.689-10.513,3.315l-3.884,3.612 c-3.547,3.283-8.632,4.308-13.172,2.658l-56.163-20.507l-3.171-11.41c-1.169-4.212-4.388-7.542-8.56-8.84l-21.836-6.823 c-2.45-0.768-5.076-0.785-7.534-0.048l-16.407,4.924l-14.91-9.945c-2.114-1.41-4.604-2.162-7.143-2.162h-18.881 c-1.578,0-3.098,0.585-4.276,1.626l-4.756,4.228c-1.561,1.393-3.707,1.93-5.749,1.457l-62-14.589 c-2.194-0.521-4.484-0.449-6.646,0.192l-13.268,3.988c-2.361,0.704-4.868,0.721-7.238,0.048l-15.83-4.524 c-1.145-0.329-2.338-0.497-3.531-0.497H52.129c-2.995,0-5.59,2.058-6.27,4.957l-1.706,7.238c-0.68,2.899-3.267,4.956-6.262,4.956 H19.86c-4.436,0-8.568,2.283-10.914,6.046L1.955,99.702c-2.658,4.252-2.602,9.673,0.144,13.869l28.002,42.783 c2.378,3.635,6.429,5.821,10.769,5.821h25.8c2.33,0,4.612-0.632,6.615-1.833l9.023-5.413c2.002-1.2,4.284-1.834,6.623-1.834h5.525 c5.437,0,10.289,3.419,12.123,8.544l3.715,10.409c1.954,5.477-0.008,11.595-4.788,14.91l-12.579,8.704 c-3.468,2.411-5.541,6.358-5.541,10.578v37.025c0,3.611-1.522,7.062-4.196,9.497l-11.146,10.185 c-4.565,4.164-5.518,10.986-2.282,16.246l10.562,17.16v11.098l-7.96,11.578c-1.801,2.626-1.417,6.174,0.914,8.344l7.215,6.742 c2.242,2.097,2.698,5.493,1.08,8.095l-13.444,21.643c-1.264,2.05-1.93,4.397-1.93,6.79v16.127c0,3.555,2.875,6.438,6.43,6.438 h7.526c3.924,0,7.64,1.793,10.09,4.876l36.578,46.162c1.217,1.537,3.075,2.434,5.036,2.434h16.054l6.054-18.161h18.16l8.408-11.202 c2.338-3.122,5.973-5.012,9.881-5.133l54.73-1.769c1.097-0.04,2.186,0.072,3.251,0.312l19.69,4.436 c5.846,1.329,11.819-1.561,14.429-6.95l7.255-15.046c1.546-3.194,4.34-5.613,7.719-6.678l26.36-8.32 c4.164-1.313,7.383-4.66,8.536-8.864l7.927-28.842c0.849-3.066,2.803-5.709,5.476-7.423l9.945-6.374 c2.923-1.866,4.965-4.837,5.669-8.232c0.705-3.395,0-6.934-1.938-9.809l-12.972-19.194c-2.939-4.348-2.939-10.057,0.008-14.413 l39.644-58.597c1.233-1.833,2.931-3.314,4.901-4.307l61.912-30.956C456.552,179.367,459.099,176.004,459.843,172.064z"/> <path class="st0" d="M471.678,267.351l-11.066-3.379c-1.793-0.552-3.747,0.016-4.972,1.457l-10.289,12.091 c-0.865,1.033-1.265,2.379-1.073,3.715c0.184,1.33,0.929,2.515,2.05,3.268l10.602,7.102c1.105,0.744,2.483,0.985,3.772,0.657 c1.289-0.329,2.394-1.178,3.018-2.362l4.66-8.736c0.192-0.353,0.416-0.682,0.689-0.969l4.708-5.141 c1.097-1.2,1.506-2.866,1.073-4.436C474.432,269.056,473.231,267.823,471.678,267.351z"/> <path class="st0" d="M510.369,257.837l-7.879-6.822c-1.466-1.274-3.572-1.521-5.285-0.608l-9.136,4.804 c-1.177,0.625-2.042,1.714-2.378,3.011c-0.32,1.297-0.096,2.666,0.648,3.779l1.946,2.915c1.233,1.858,3.604,2.594,5.678,1.762 l3.772-1.506c0.913-0.369,1.929-0.433,2.898-0.192l5.333,1.329c2.146,0.544,4.38-0.481,5.365-2.466l0.168-0.329 C512.467,261.585,512.002,259.247,510.369,257.837z"/> <path class="st0" d="M424.298,302.198c-0.552-2.21-2.61-3.715-4.892-3.564l-8.039,0.536c-1.905,0.129-3.555,1.394-4.164,3.219 l-2.411,7.238c-0.392,1.193-0.304,2.483,0.257,3.604l2.05,4.1c0.696,1.41,2.057,2.37,3.611,2.578 c1.554,0.201,3.107-0.384,4.148-1.561l8.864-10.049c1.033-1.161,1.418-2.754,1.042-4.26L424.298,302.198z"/> </g> </g>
</svg>